<svg xmlns="http://www.w3.org/2000/svg" width="1127.29" height="413.67" viewBox="0 0 1127.29 413.67"><title>Ingot-Logo</title><path d="M603.77,273.45h39.71V445H603.77Z" transform="translate(-122.77 -177.45)" fill="#2d2d2d"/><path d="M756.74,311.18q24.51,0,39.46,14.7,15.19,14.7,15.2,43.61V445H773.17V375.38q0-15.69-6.87-23.28-6.85-7.85-19.85-7.84-14.46,0-23,9.06-8.58,8.82-8.58,26.47V445H676.6V313.14h36.52v15.44A49.35,49.35,0,0,1,732,315.84,64.14,64.14,0,0,1,756.74,311.18Z" transform="translate(-122.77 -177.45)" fill="#2d2d2d"/><path d="M978.62,313.14V422.91q0,36.25-18.87,53.9T904.6,494.45a138.12,138.12,0,0,1-36.27-4.65q-17.16-4.67-28.43-13.48l15.19-27.44q8.34,6.86,21.08,10.78a81.59,81.59,0,0,0,25.49,4.16q19.86,0,29.16-9.06,9.57-8.82,9.56-26.95v-5.64q-14.94,16.43-41.66,16.42a71.69,71.69,0,0,1-33.33-7.84,61.85,61.85,0,0,1-23.78-22.54q-8.82-14.46-8.82-33.32t8.82-33.33a60,60,0,0,1,23.78-22.29,69.84,69.84,0,0,1,33.33-8.09q28.68,0,43.62,18.87V313.14Zm-72.3,94.09q15.2,0,24.75-8.82,9.81-9.07,9.8-23.52t-9.8-23.28q-9.55-9.06-24.75-9.07t-25,9.07q-9.81,8.82-9.81,23.28t9.81,23.52Q891.12,407.23,906.32,407.23Z" transform="translate(-122.77 -177.45)" fill="#2d2d2d"/><path d="M1072.05,446.92q-20.83,0-37.5-8.58a65.74,65.74,0,0,1-25.74-24.25q-9.31-15.43-9.31-35t9.31-35a64,64,0,0,1,25.74-24q16.67-8.82,37.5-8.82T1109.3,320A64,64,0,0,1,1135,344q9.32,15.44,9.31,35t-9.31,35a65.74,65.74,0,0,1-25.74,24.25Q1092.89,446.92,1072.05,446.92Zm0-31.36q14.7,0,24-9.8,9.56-10,9.56-26.71t-9.56-26.46q-9.32-10.05-24-10t-24.27,10q-9.55,9.8-9.55,26.46t9.55,26.71Q1057.35,415.56,1072.05,415.56Z" transform="translate(-122.77 -177.45)" fill="#2d2d2d"/><path d="M1250.06,438.59a41.06,41.06,0,0,1-14,6.37,73.11,73.11,0,0,1-17.16,2q-23.54,0-36.52-12-12.75-12-12.75-35.28V345.48h-20.34v-29.4h20.34V284h38.24v32.09h32.84v29.4H1207.9v53.66q0,8.33,4.17,13,4.41,4.41,12.25,4.41a24.61,24.61,0,0,0,15.44-4.9Z" transform="translate(-122.77 -177.45)" fill="#2d2d2d"/><path d="M463,453a123.81,123.81,0,0,1-73.84,24.28c-48.77,0-76.14-30.81-98.37-56.07C267.39,394.58,250,375,219.71,375c-31.48,0-49.46,16.36-56.93,38.08-7.82,22.78-4.21,52.41,11.48,76.51l-.29.2,51.41,63.82c40.31,50,116.56,50,156.87,0l76.42-94.86C460.19,456.84,461.64,454.93,463,453Z" transform="translate(-122.77 -177.45)" fill="#ffa216"/><path d="M382.37,215.13c-40.32-50.24-116.79-50.24-157.11,0l-76.44,95.25a118.41,118.41,0,0,0-18.48,115.77,102.64,102.64,0,0,1,4.95-22.54c11.35-33.05,40.1-57.71,84.42-57.71a92.9,92.9,0,0,1,11.87.75,76.11,76.11,0,1,1,118.26,90.29,71.3,71.3,0,0,0,39.34,11.24c36.26,0,68.13-20.31,82.05-49.1,10.79-22.29,11.59-51.49-7.87-82.64-1.45-2.06-3-4.08-4.55-6.06Z" transform="translate(-122.77 -177.45)" fill="#ffa216"/></svg>